<svg xmlns="http://www.w3.org/2000/svg" width="126.846" height="29.203" viewBox="0 0 126.846 29.203">
  <defs>
    <style>
      .cls-1 {
        fill: #92badb;
      }
    </style>
  </defs>
  <path id="Path_2" data-name="Path 2" class="cls-1" d="M17.632.174a3.278,3.278,0,0,1-2.6-.942A3.414,3.414,0,0,1,14.21-3.1a7.51,7.51,0,0,1,.145-1.377q.145-.769.3-1.494t.218-.928q.232-1.015.435-2a8.3,8.3,0,0,0,.2-1.595q0-1.479-1.044-1.479a1.676,1.676,0,0,0-1.334.74,5.692,5.692,0,0,0-.928,1.928L10.237,0H6.061L8.178-10.005a2.978,2.978,0,0,0,.087-.725q0-1.276-.87-1.276a1.762,1.762,0,0,0-1.407.74,5.516,5.516,0,0,0-.942,1.958L3.074,0H-1.1L1.972-14.5H6.148l-.319,1.508a4.59,4.59,0,0,1,3.538-1.653,2.723,2.723,0,0,1,2.987,2.494,4.7,4.7,0,0,1,4.031-2.465,3.305,3.305,0,0,1,2.349.812,3.216,3.216,0,0,1,.87,2.465,9.746,9.746,0,0,1-.2,1.87q-.2,1.03-.58,2.509-.232.9-.42,1.754a6.673,6.673,0,0,0-.189,1.349,1.384,1.384,0,0,0,.261.9,1.1,1.1,0,0,0,.9.319,1.724,1.724,0,0,0,1.392-.623,7.315,7.315,0,0,0,1.044-1.929h1.218A9.025,9.025,0,0,1,20.547-.914,4.712,4.712,0,0,1,17.632.174Zm8.7,7.076a3.56,3.56,0,0,1-2.392-.885,2.833,2.833,0,0,1-1.03-2.247,3.279,3.279,0,0,1,.638-2.088A4.372,4.372,0,0,1,25.2.754a22.773,22.773,0,0,1,2.726-.986l.29-1.276A4.558,4.558,0,0,1,24.679.174,3.011,3.011,0,0,1,22.432-.7a3.582,3.582,0,0,1-.856-2.61,10.056,10.056,0,0,1,.232-1.885L23.78-14.5h4.176L25.868-4.64a2.978,2.978,0,0,0-.087.725q0,1.276.87,1.276a1.77,1.77,0,0,0,1.392-.682,5.049,5.049,0,0,0,.928-1.87L30.943-14.5h4.205L31.61,2.32a6.129,6.129,0,0,1-2.045,3.857A5.347,5.347,0,0,1,26.332,7.25Zm-.667-2.581a1.315,1.315,0,0,0,.986-.536,3.961,3.961,0,0,0,.725-1.726L27.724.7a7.542,7.542,0,0,0-2.378,1.218,2.226,2.226,0,0,0-.841,1.8.87.87,0,0,0,.348.652A1.2,1.2,0,0,0,25.665,4.669ZM39.585-18.1H36.83l.348-1.334a13.4,13.4,0,0,0,3.306-.435,16.107,16.107,0,0,0,4.06-1.827L39.933,0H35.757ZM54.636-12.7q1.218,1.131,1.957,1.972A8.414,8.414,0,0,1,57.855-8.8a5.325,5.325,0,0,1,.522,2.335,5.807,5.807,0,0,1-1.029,3.321A7.31,7.31,0,0,1,54.563-.725a8.3,8.3,0,0,1-3.842.9,7.511,7.511,0,0,1-3.32-.71A5.581,5.581,0,0,1,45.11-2.508a5.2,5.2,0,0,1-.826-2.915,5.223,5.223,0,0,1,1.334-3.552,12.084,12.084,0,0,1,4.176-2.8,14.025,14.025,0,0,1-1.929-2.451,4.764,4.764,0,0,1-.681-2.479,4.531,4.531,0,0,1,.841-2.654,5.756,5.756,0,0,1,2.306-1.9,7.437,7.437,0,0,1,3.234-.7,6.931,6.931,0,0,1,2.755.522,4.432,4.432,0,0,1,1.9,1.465,3.5,3.5,0,0,1,.681,2.1Q58.9-15.022,54.636-12.7Zm-.754-7.859a2.408,2.408,0,0,0-1.841.8,2.888,2.888,0,0,0-.74,2.045,3.725,3.725,0,0,0,.551,1.957,9.914,9.914,0,0,0,1.595,1.929,7.67,7.67,0,0,0,1.711-2.175,5.058,5.058,0,0,0,.638-2.349,2.4,2.4,0,0,0-.507-1.609A1.75,1.75,0,0,0,53.882-20.561ZM50.866-1.827a2.929,2.929,0,0,0,2.248-1.044,3.558,3.558,0,0,0,.943-2.465,4.555,4.555,0,0,0-.783-2.552,17.955,17.955,0,0,0-2.291-2.7A6.46,6.46,0,0,0,48.85-8.309a5.965,5.965,0,0,0-.739,2.915,4.122,4.122,0,0,0,.754,2.6A2.407,2.407,0,0,0,50.866-1.827Zm11.252,2a3.763,3.763,0,0,1-2.625-.855,3.294,3.294,0,0,1-.943-2.567A6.808,6.808,0,0,1,58.7-4.64l2.088-9.86H64.96L62.872-4.64A6.087,6.087,0,0,0,62.727-3.6a.859.859,0,0,0,.986.957,3.138,3.138,0,0,0,2.479-1.682,14.431,14.431,0,0,0,1.841-4,14.265,14.265,0,0,0,.7-4q-.058.145-.377.218a2.54,2.54,0,0,1-.551.073.854.854,0,0,1-.769-.464,1.952,1.952,0,0,1-.275-1.015,1.5,1.5,0,0,1,.45-1.131,1.869,1.869,0,0,1,1.348-.435,1.51,1.51,0,0,1,1.392.71,3.423,3.423,0,0,1,.435,1.813,19.328,19.328,0,0,1-.9,5.582,13.286,13.286,0,0,1-2.755,5.061A5.92,5.92,0,0,1,62.118.174Zm13.543-16.24a2.21,2.21,0,0,1-1.624-.667,2.21,2.21,0,0,1-.667-1.624A2.259,2.259,0,0,1,74.037-20a2.187,2.187,0,0,1,1.624-.682A2.234,2.234,0,0,1,77.3-20a2.234,2.234,0,0,1,.682,1.638,2.187,2.187,0,0,1-.682,1.624A2.259,2.259,0,0,1,75.661-16.066ZM73.689.174A3.011,3.011,0,0,1,71.441-.7a3.582,3.582,0,0,1-.855-2.61,10.055,10.055,0,0,1,.232-1.885L72.79-14.5h4.176L74.878-4.64a3.589,3.589,0,0,0-.116.928,1.064,1.064,0,0,0,.275.827,1.359,1.359,0,0,0,.914.247,2.209,2.209,0,0,0,1.566-.711,4.061,4.061,0,0,0,1.044-1.841h1.218A8.039,8.039,0,0,1,77.024-.942,6.007,6.007,0,0,1,73.689.174Zm8.352,0A3.688,3.688,0,0,1,79.286-.957a4.911,4.911,0,0,1-1.1-3.538A13.246,13.246,0,0,1,79.039-9a10.385,10.385,0,0,1,2.552-4,5.621,5.621,0,0,1,4.045-1.638,3.106,3.106,0,0,1,1.769.406,1.252,1.252,0,0,1,.58,1.073v.116l1.421-6.67L93.7-20.3,90.364-4.64a3.589,3.589,0,0,0-.116.928,1.064,1.064,0,0,0,.275.827,1.359,1.359,0,0,0,.913.247,1.8,1.8,0,0,0,1.407-.7,5.068,5.068,0,0,0,.942-1.856H95Q93.235,0,89.175,0a2.848,2.848,0,0,1-1.928-.638,2.887,2.887,0,0,1-.913-1.856A7.006,7.006,0,0,1,84.521-.58,4.162,4.162,0,0,1,82.041.174Zm1.885-2.813a2.13,2.13,0,0,0,1.407-.638A3.3,3.3,0,0,0,86.3-5.046v-.145l1.421-6.641a1.163,1.163,0,0,0-1.189-1.015A2.586,2.586,0,0,0,84.448-11.5,10.676,10.676,0,0,0,83-8.25,12.846,12.846,0,0,0,82.476-4.9,2.749,2.749,0,0,0,82.9-3.045,1.426,1.426,0,0,0,83.926-2.639ZM97.933.174A4.683,4.683,0,0,1,94.6-.942a4.589,4.589,0,0,1-1.189-3.494,14.355,14.355,0,0,1,.783-4.408,10.231,10.231,0,0,1,2.552-4.161,6.117,6.117,0,0,1,4.5-1.754q3.19,0,3.19,2.784A5.2,5.2,0,0,1,103.5-8.99,6.846,6.846,0,0,1,101.036-6.8a7.96,7.96,0,0,1-3.277.943q-.058.87-.058,1.16a2.806,2.806,0,0,0,.493,1.928,2.148,2.148,0,0,0,1.6.507,4.818,4.818,0,0,0,2.683-.725,13,13,0,0,0,2.451-2.2h.986Q102.689.174,97.933.174Zm.058-7.424A3.823,3.823,0,0,0,100.035-8,5.311,5.311,0,0,0,101.6-9.773a4.6,4.6,0,0,0,.594-2.262q0-1.189-.725-1.189-1.044,0-2.044,1.827A13.915,13.915,0,0,0,97.991-7.25ZM120.64.174a3.826,3.826,0,0,1-3.175-1.1,4.358,4.358,0,0,1-.856-2.755,3.007,3.007,0,0,1,.638-1.986,1.859,1.859,0,0,1,1.45-.769q1.508,0,1.508,1.218a1.231,1.231,0,0,1-.406.914,1.368,1.368,0,0,1-.986.391.77.77,0,0,1-.783-.377,2.659,2.659,0,0,0,.421,1.609,1.471,1.471,0,0,0,1.261.566,1.6,1.6,0,0,0,1.407-.595,3.826,3.826,0,0,0,.421-2.1,17.656,17.656,0,0,0-.174-2.2q-.29-2.784-.464-5.684a8.994,8.994,0,0,1-4.872,4A12.656,12.656,0,0,1,114.9-4.031a7.849,7.849,0,0,1-2.451,3.074A5.516,5.516,0,0,1,109.156.116a4.942,4.942,0,0,1-3.393-1.1,4.416,4.416,0,0,1-1.247-3.48,14.222,14.222,0,0,1,.783-4.393,10.244,10.244,0,0,1,2.552-4.147,6.153,6.153,0,0,1,4.524-1.754q3.683,0,3.712,4.553,2.146-.116,4.727-4.611l4.292-.58q.145,3.712.493,8.033.145,1.74.145,2.523a4.587,4.587,0,0,1-1.508,3.813A5.588,5.588,0,0,1,120.64.174ZM110.316-2.494q1.073,0,2-1.725A12.616,12.616,0,0,0,113.593-8.5q-.7-.261-.7-1.3a1.494,1.494,0,0,1,.812-1.508,2.85,2.85,0,0,0-.3-1.305.882.882,0,0,0-.8-.377q-.957,0-1.827,1.378a12.325,12.325,0,0,0-1.407,3.335,13.23,13.23,0,0,0-.536,3.437,3.719,3.719,0,0,0,.319,1.87A1.292,1.292,0,0,0,110.316-2.494Z" transform="translate(1.102 21.953)"/>
</svg>
